# xmcd CD database file
#
# Track frame offsets:
#	150
#	22502
#	39157
#	55367
#	75642
#	95257
#	112115
#	133252
#	149827
#	169525
#	189072
#	210767
#	229677
#
# Disc length: 3281 seconds
#
# Revision: 0
# Processed by: cddbd v1.5.1PL2 Copyright (c) Steve Scherf et al.
# Submitted via: CDex 1.51
#
DISCID=9d0ccf0d
DTITLE=Gary Shearston - Aussie Blue
DYEAR=1900
DGENRE=Country
TTITLE0=Aussie Blue
TTITLE1=In a Balmain Backyard
TTITLE2=Pilgrim man
TTITLE3=Crafty Old Captain
TTITLE4=Above Below
TTITLE5=Salvation Blues
TTITLE6=Shopping on a aturday
TTITLE7=A Voice From the City
TTITLE8=Faith Can Be So Blind
TTITLE9=Irish Girls (Will Steal Your Breath Away)
TTITLE10=The Dream Will Die
TTITLE11=The Holy Spirit Of Redemptive Love
TTITLE12=I Get a Kick Out of You
EXTD=
EXTT0=
EXTT1=
EXTT2=
EXTT3=
EXTT4=
EXTT5=
EXTT6=
EXTT7=
EXTT8=
EXTT9=
EXTT10=
EXTT11=
EXTT12=
PLAYORDER=
